<svg version="1.1" id="Layer_1" xmlns="http://www.w3.org/2000/svg" xmlns:xlink="http://www.w3.org/1999/xlink" x="0px" y="0px"
	 width="100%" viewBox="0 0 224 225" enable-background="new 0 0 224 225" xml:space="preserve">
<defs>
<clipPath id="circleClip">
<circle cx="112" cy="112.5" r="112"/>
</clipPath>
</defs>
<g clip-path="url(#circleClip)">
<path fill="#000001" opacity="1.000000" stroke="none" 
	d="
M117.000000,1.000000 
	C152.982269,1.000000 188.964539,1.000000 224.973404,1.000000 
	C224.973404,75.945328 224.973404,150.890671 224.973404,225.917999 
	C150.424850,225.917999 75.849571,225.917999 1.137148,225.917999 
	C1.137148,151.000153 1.137148,76.000122 1.137148,1.000000 
	C36.430664,1.000000 71.746674,1.000000 107.803528,1.290059 
	C111.362923,1.386746 114.181458,1.193373 117.000000,1.000000 
M93.561127,59.074631 
	C80.094574,59.074631 66.628021,59.074631 53.048859,59.074631 
	C53.048859,102.532700 53.048859,145.576462 53.048859,188.579407 
	C67.058434,188.579407 80.642227,188.579407 94.620773,188.579407 
	C94.620773,186.458328 94.609146,184.657562 94.622566,182.857010 
	C94.744194,166.539780 94.870201,150.222580 95.809433,134.078354 
	C98.934349,134.533707 102.144997,134.673355 105.170464,135.494949 
	C127.013290,141.426590 138.429367,156.825745 143.362076,177.994354 
	C144.231247,181.724350 143.818909,187.164307 146.123978,188.777695 
	C148.780777,190.637283 153.795685,189.097061 157.786667,189.087555 
	C166.395020,189.067032 175.003448,189.081238 184.071442,189.081238 
	C183.048889,161.260956 171.976288,139.335129 152.454224,121.859314 
	C158.868011,116.927193 165.515213,112.555878 171.272232,107.223473 
	C181.113754,98.107819 186.205261,86.849960 183.202133,73.139702 
	C179.830124,57.745293 168.604324,48.747551 155.963181,41.320221 
	C144.510300,34.591057 131.920364,30.683140 118.793396,28.841791 
	C110.507111,27.679457 102.125977,27.193359 93.121933,26.340937 
	C93.649529,38.106350 94.117569,48.543709 93.561127,59.074631 
M80.151237,28.045420 
	C74.369507,26.229187 68.695679,26.527948 63.232792,29.146978 
	C55.942493,32.642113 52.344852,40.286938 55.064804,46.694920 
	C58.336498,54.402775 64.977890,57.276886 72.663261,57.430935 
	C80.356049,57.585136 87.143761,54.914951 90.756607,47.446209 
	C94.334915,40.048866 90.577530,32.959671 80.151237,28.045420 
z"/>
<path fill="#212324" opacity="1.000000" stroke="none" 
	d="
M116.550018,1.000000 
	C114.181458,1.193373 111.362923,1.386746 108.272186,1.290059 
	C110.700012,1.000000 113.400032,1.000000 116.550018,1.000000 
z"/>
<path fill="#F82901" opacity="1.000000" stroke="none" 
	d="
M94.585617,58.981064 
	C94.117569,48.543709 93.649529,38.106350 93.121933,26.340937 
	C102.125977,27.193359 110.507111,27.679457 118.793396,28.841791 
	C131.920364,30.683140 144.510300,34.591057 155.963181,41.320221 
	C168.604324,48.747551 179.830124,57.745293 183.202133,73.139702 
	C186.205261,86.849960 181.113754,98.107819 171.272232,107.223473 
	C165.515213,112.555878 158.868011,116.927193 152.454224,121.859314 
	C171.976288,139.335129 183.048889,161.260956 184.071442,189.081238 
	C175.003448,189.081238 166.395020,189.067032 157.786667,189.087555 
	C153.795685,189.097061 148.780777,190.637283 146.123978,188.777695 
	C143.818909,187.164307 144.231247,181.724350 143.362076,177.994354 
	C138.429367,156.825745 127.013290,141.426590 105.170464,135.494949 
	C102.144997,134.673355 98.934349,134.533707 95.301361,133.538818 
	C94.860931,122.357140 94.928581,111.715019 95.454643,101.042099 
	C102.688393,100.372650 109.538666,100.161827 116.220863,98.991417 
	C125.412399,97.381477 134.454987,94.929405 141.568954,88.282898 
	C147.201660,83.020348 147.303452,77.122330 141.599197,71.912209 
	C139.066940,69.599304 136.021103,67.661331 132.902512,66.210785 
	C120.741623,60.554359 107.668999,59.369781 94.507080,58.948448 
	C94.530716,58.964642 94.585617,58.981064 94.585617,58.981064 
z"/>
<path fill="#318AE5" opacity="1.000000" stroke="none" 
	d="
M94.996223,101.072891 
	C94.928581,111.715019 94.860931,122.357140 94.894104,133.452332 
	C94.870201,150.222580 94.744194,166.539780 94.622566,182.857010 
	C94.609146,184.657562 94.620773,186.458328 94.620773,188.579407 
	C80.642227,188.579407 67.058434,188.579407 53.048859,188.579407 
	C53.048859,145.576462 53.048859,102.532700 53.048859,59.074631 
	C66.628021,59.074631 80.094574,59.074631 94.073372,59.027847 
	C94.585617,58.981064 94.530716,58.964642 94.513000,59.423332 
	C94.536896,61.702290 94.597046,63.522350 94.617111,65.342857 
	C94.748329,77.252815 94.870857,89.162872 94.996223,101.072891 
M84.073166,186.000610 
	C85.496086,185.928329 86.919006,185.856049 88.341927,185.783752 
	C88.333977,185.642380 88.326027,185.501007 88.318077,185.359634 
	C78.178566,185.359634 68.039055,185.359634 57.899540,185.359634 
	C57.900734,185.573288 57.901928,185.786957 57.903122,186.000610 
	C66.329063,186.000610 74.755013,186.000610 84.073166,186.000610 
z"/>
<path fill="#FBCC02" opacity="1.000000" stroke="none" 
	d="
M80.543289,28.135181 
	C90.577530,32.959671 94.334915,40.048866 90.756607,47.446209 
	C87.143761,54.914951 80.356049,57.585136 72.663261,57.430935 
	C64.977890,57.276886 58.336498,54.402775 55.064804,46.694920 
	C52.344852,40.286938 55.942493,32.642113 63.232792,29.146978 
	C68.695679,26.527948 74.369507,26.229187 80.543289,28.135181 
z"/>
<path fill="#020001" opacity="1.000000" stroke="none" 
	d="
M95.454643,101.042099 
	C94.870857,89.162872 94.748329,77.252815 94.617111,65.342857 
	C94.597046,63.522350 94.536896,61.702290 94.489365,59.407139 
	C107.668999,59.369781 120.741623,60.554359 132.902512,66.210785 
	C136.021103,67.661331 139.066940,69.599304 141.599197,71.912209 
	C147.303452,77.122330 147.201660,83.020348 141.568954,88.282898 
	C134.454987,94.929405 125.412399,97.381477 116.220863,98.991417 
	C109.538666,100.161827 102.688393,100.372650 95.454643,101.042099 
z"/>
<path fill="#408AED" opacity="1.000000" stroke="none" 
	d="
M83.627060,186.000610 
	C74.755013,186.000610 66.329063,186.000610 57.903122,186.000610 
	C57.901928,185.786957 57.900734,185.573288 57.899540,185.359634 
	C68.039055,185.359634 78.178566,185.359634 88.318077,185.359634 
	C88.326027,185.501007 88.333977,185.642380 88.341927,185.783752 
	C86.919006,185.856049 85.496086,185.928329 83.627060,186.000610 
z"/>
</g>
</svg>